<?xml version="1.0" encoding="utf-8"?>
<svg version="1.1" xmlns:xlink="http://www.w3.org/1999/xlink" width="270px" height="480px" xmlns="http://www.w3.org/2000/svg">
  <g transform="matrix(1 0 0 1 -703 -161 )">
    <path d="M 703 161  L 973 161  L 973 641  L 703 641  L 703 161  " fill-rule="nonzero" fill="#cccccc" stroke="none" />
    <path d="M 722 180  L 954 180  L 954 622  L 722 622  L 722 180  " fill-rule="nonzero" fill="#ffffff" stroke="none" />
    <path d="M 863.65 273.5  C 852.31 273.5  843.4 264.59  843.4 253.25  C 843.4 241.91  852.31 233  863.65 233  C 874.99 233  883.9 241.91  883.9 253.25  C 883.9 264.59  874.99 273.5  863.65 273.5  " fill-rule="nonzero" fill="#cccccc" stroke="none" />
    <path d="M 729 615  L 729 379.6  L 783.5 272.6  L 859.8 358.2  L 903.4 336.8  L 947 358.2  L 947 615  L 729 615  " fill-rule="nonzero" fill="#169bd5" stroke="none" />
  </g>
</svg>