<?xml version="1.0" encoding="utf-8"?>
<svg version="1.1" xmlns:xlink="http://www.w3.org/1999/xlink" width="15px" height="15px" xmlns="http://www.w3.org/2000/svg">
  <g transform="matrix(1 0 0 1 -855 -660 )">
    <path d="M 862.5 660  C 866.7 660  870 663.3  870 667.5  C 870 671.7  866.7 675  862.5 675  C 858.3 675  855 671.7  855 667.5  C 855 663.3  858.3 660  862.5 660  Z " fill-rule="nonzero" fill="#b5b5b5" stroke="none" />
    <path d="M 862.5 660.5  C 866.42 660.5  869.5 663.58  869.5 667.5  C 869.5 671.42  866.42 674.5  862.5 674.5  C 858.58 674.5  855.5 671.42  855.5 667.5  C 855.5 663.58  858.58 660.5  862.5 660.5  Z " stroke-width="1" stroke="#b5b5b5" fill="none" />
  </g>
</svg>