<?xml version="1.0" encoding="utf-8"?>
<svg version="1.1" xmlns:xlink="http://www.w3.org/1999/xlink" width="10px" height="510px" preserveAspectRatio="xMidYMin meet" viewBox="1266 325  8 510" xmlns="http://www.w3.org/2000/svg">
  <path d="M 1053.74483487622 329.458851077208  A 2 2 0 0 0 1055.5 330.5 L 1265 330.5  A 5 5 0 0 1 1270.5 335.5 L 1270.5 825  A 5 5 0 0 1 1265.5 830.5 L 782 830.5  A 5 5 0 0 1 777.5 825.5 L 777.5 808  " stroke-width="1" stroke="#ff3399" fill="none" />
  <path d="M 1055.35852559666 327.494989973208  A 3 3 0 0 0 1052.35852559666 330.494989973208 A 3 3 0 0 0 1055.35852559666 333.494989973208 A 3 3 0 0 0 1058.35852559666 330.494989973208 A 3 3 0 0 0 1055.35852559666 327.494989973208 Z " fill-rule="nonzero" fill="#ff3399" stroke="none" />
</svg>