<?xml version="1.0" encoding="utf-8"?>
<svg version="1.1" xmlns:xlink="http://www.w3.org/1999/xlink" width="10px" height="47px" preserveAspectRatio="xMidYMin meet" viewBox="773 808  8 47" xmlns="http://www.w3.org/2000/svg">
  <path d="M 1053.5 327  L 1053.5 305  A 5 5 0 0 1 1058.5 300.5 L 1255 300.5  A 5 5 0 0 1 1260.5 305.5 L 1260.5 845  A 5 5 0 0 1 1255.5 850.5 L 782 850.5  A 5 5 0 0 1 777.5 845.5 L 777.5 808  " stroke-width="1" stroke="#ff3399" fill="none" />
  <path d="M 1053.5 322  A 3 3 0 0 0 1050.5 325 A 3 3 0 0 0 1053.5 328 A 3 3 0 0 0 1056.5 325 A 3 3 0 0 0 1053.5 322 Z " fill-rule="nonzero" fill="#ff3399" stroke="none" />
</svg>