<?xml version="1.0" encoding="utf-8"?>
<svg version="1.1" xmlns:xlink="http://www.w3.org/1999/xlink" width="326px" height="271px" xmlns="http://www.w3.org/2000/svg">
  <g transform="matrix(1 0 0 1 -1296 -222 )">
    <path d="M 1297 226  A 3 3 0 0 1 1300 223 L 1618 223  A 3 3 0 0 1 1621 226 L 1621 489  A 3 3 0 0 1 1618 492 L 1300 492  A 3 3 0 0 1 1297 489 L 1297 226  Z " fill-rule="nonzero" fill="#ff3399" stroke="none" fill-opacity="0.0980392156862745" />
    <path d="M 1296.5 226  A 3.5 3.5 0 0 1 1300 222.5 L 1618 222.5  A 3.5 3.5 0 0 1 1621.5 226 L 1621.5 489  A 3.5 3.5 0 0 1 1618 492.5 L 1300 492.5  A 3.5 3.5 0 0 1 1296.5 489 L 1296.5 226  Z " stroke-width="1" stroke-dasharray="9,4" stroke="#ff3399" fill="none" stroke-dashoffset="0.5" />
  </g>
</svg>