<?xml version="1.0" encoding="utf-8"?>
<svg version="1.1" xmlns:xlink="http://www.w3.org/1999/xlink" width="10px" height="33px" preserveAspectRatio="xMidYMin meet" viewBox="1049 295  8 33" xmlns="http://www.w3.org/2000/svg">
  <path d="M 1053.5 327  L 1053.5 305  A 5 5 0 0 1 1058.5 300.5 L 1285 300.5  A 5 5 0 0 1 1290.5 305.5 L 1290.5 925  A 5 5 0 0 1 1285.5 930.5 L 745 930.5  A 5 5 0 0 1 740.5 925.5 L 740.5 815  A 5 5 0 0 1 745.5 810.5 L 776 810.5  A 1 1 0 0 0 777.5 809.5 L 777.5 808  " stroke-width="1" stroke="#ff3399" fill="none" />
  <path d="M 1053.5 322  A 3 3 0 0 0 1050.5 325 A 3 3 0 0 0 1053.5 328 A 3 3 0 0 0 1056.5 325 A 3 3 0 0 0 1053.5 322 Z " fill-rule="nonzero" fill="#ff3399" stroke="none" />
</svg>