<?xml version="1.0" encoding="utf-8"?>
<svg version="1.1" xmlns:xlink="http://www.w3.org/1999/xlink" width="191px" height="51px" xmlns="http://www.w3.org/2000/svg">
  <g transform="matrix(1 0 0 1 -1252 -200 )">
    <path d="M 1253 204  A 3 3 0 0 1 1256 201 L 1439 201  A 3 3 0 0 1 1442 204 L 1442 247  A 3 3 0 0 1 1439 250 L 1256 250  A 3 3 0 0 1 1253 247 L 1253 204  Z " fill-rule="nonzero" fill="#ff3399" stroke="none" fill-opacity="0.0980392156862745" />
    <path d="M 1252.5 204  A 3.5 3.5 0 0 1 1256 200.5 L 1439 200.5  A 3.5 3.5 0 0 1 1442.5 204 L 1442.5 247  A 3.5 3.5 0 0 1 1439 250.5 L 1256 250.5  A 3.5 3.5 0 0 1 1252.5 247 L 1252.5 204  Z " stroke-width="1" stroke-dasharray="9,4" stroke="#ff3399" fill="none" stroke-dashoffset="0.5" />
  </g>
</svg>