<?xml version="1.0" encoding="utf-8"?>
<svg version="1.1" xmlns:xlink="http://www.w3.org/1999/xlink" width="157px" height="308px" xmlns="http://www.w3.org/2000/svg">
  <g transform="matrix(1 0 0 1 -1264 -341 )">
    <path d="M 1265 345  A 3 3 0 0 1 1268 342 L 1417 342  A 3 3 0 0 1 1420 345 L 1420 645  A 3 3 0 0 1 1417 648 L 1268 648  A 3 3 0 0 1 1265 645 L 1265 345  Z " fill-rule="nonzero" fill="#ff3399" stroke="none" fill-opacity="0.0980392156862745" />
    <path d="M 1264.5 345  A 3.5 3.5 0 0 1 1268 341.5 L 1417 341.5  A 3.5 3.5 0 0 1 1420.5 345 L 1420.5 645  A 3.5 3.5 0 0 1 1417 648.5 L 1268 648.5  A 3.5 3.5 0 0 1 1264.5 645 L 1264.5 345  Z " stroke-width="1" stroke-dasharray="9,4" stroke="#ff3399" fill="none" stroke-dashoffset="0.5" />
  </g>
</svg>