<?xml version="1.0" encoding="utf-8"?>
<svg version="1.1" xmlns:xlink="http://www.w3.org/1999/xlink" width="36px" height="36px" xmlns="http://www.w3.org/2000/svg">
  <g transform="matrix(1 0 0 1 -230 -445 )">
    <path d="M 231 450  A 4 4 0 0 1 235 446 L 261 446  A 4 4 0 0 1 265 450 L 265 476  A 4 4 0 0 1 261 480 L 235 480  A 4 4 0 0 1 231 476 L 231 450  Z " fill-rule="nonzero" fill="#ffffff" stroke="none" />
    <path d="M 230.5 450  A 4.5 4.5 0 0 1 235 445.5 L 261 445.5  A 4.5 4.5 0 0 1 265.5 450 L 265.5 476  A 4.5 4.5 0 0 1 261 480.5 L 235 480.5  A 4.5 4.5 0 0 1 230.5 476 L 230.5 450  Z " stroke-width="1" stroke-dasharray="9,4" stroke="#797979" fill="none" stroke-dashoffset="0.5" />
  </g>
</svg>