<?xml version="1.0" encoding="utf-8"?>
<svg version="1.1" xmlns:xlink="http://www.w3.org/1999/xlink" width="12px" height="12px" viewBox="221 432  12 12" xmlns="http://www.w3.org/2000/svg">
  <path d="M 227 432  C 230.36 432  233 434.64  233 438  C 233 441.36  230.36 444  227 444  C 223.64 444  221 441.36  221 438  C 221 434.64  223.64 432  227 432  Z " fill-rule="nonzero" fill="#ffffff" stroke="none" />
  <path d="M 227 432.5  C 230.08 432.5  232.5 434.92  232.5 438  C 232.5 441.08  230.08 443.5  227 443.5  C 223.92 443.5  221.5 441.08  221.5 438  C 221.5 434.92  223.92 432.5  227 432.5  Z " stroke-width="1" stroke="#797979" fill="none" />
  <path d="M 227 441  C 225.32 441  224 439.68  224 438  C 224 436.32  225.32 435  227 435  C 228.68 435  230 436.32  230 438  C 230 439.68  228.68 441  227 441  " fill-rule="nonzero" fill="#797979" stroke="none" />
</svg>