<?xml version="1.0" encoding="utf-8"?>
<svg version="1.1" xmlns:xlink="http://www.w3.org/1999/xlink" width="12px" height="12px" viewBox="280 433  12 12" xmlns="http://www.w3.org/2000/svg">
  <path d="M 286 433  C 289.36 433  292 435.64  292 439  C 292 442.36  289.36 445  286 445  C 282.64 445  280 442.36  280 439  C 280 435.64  282.64 433  286 433  Z " fill-rule="nonzero" fill="#ffffff" stroke="none" />
  <path d="M 286 433.5  C 289.08 433.5  291.5 435.92  291.5 439  C 291.5 442.08  289.08 444.5  286 444.5  C 282.92 444.5  280.5 442.08  280.5 439  C 280.5 435.92  282.92 433.5  286 433.5  Z " stroke-width="1" stroke="#797979" fill="none" />
  <path d="M 286 442  C 284.32 442  283 440.68  283 439  C 283 437.32  284.32 436  286 436  C 287.68 436  289 437.32  289 439  C 289 440.68  287.68 442  286 442  " fill-rule="nonzero" fill="#797979" stroke="none" />
</svg>