<?xml version="1.0" encoding="utf-8"?>
<svg version="1.1" xmlns:xlink="http://www.w3.org/1999/xlink" width="12px" height="12px" viewBox="491 471  12 12" xmlns="http://www.w3.org/2000/svg">
  <path d="M 497 471  C 500.36 471  503 473.64  503 477  C 503 480.36  500.36 483  497 483  C 493.64 483  491 480.36  491 477  C 491 473.64  493.64 471  497 471  Z " fill-rule="nonzero" fill="#ffffff" stroke="none" />
  <path d="M 497 471.5  C 500.08 471.5  502.5 473.92  502.5 477  C 502.5 480.08  500.08 482.5  497 482.5  C 493.92 482.5  491.5 480.08  491.5 477  C 491.5 473.92  493.92 471.5  497 471.5  Z " stroke-width="1" stroke="#797979" fill="none" />
  <path d="M 497 480  C 495.32 480  494 478.68  494 477  C 494 475.32  495.32 474  497 474  C 498.68 474  500 475.32  500 477  C 500 478.68  498.68 480  497 480  " fill-rule="nonzero" fill="#797979" stroke="none" />
</svg>