<?xml version="1.0" encoding="utf-8"?>
<svg version="1.1" xmlns:xlink="http://www.w3.org/1999/xlink" width="12px" height="12px" viewBox="609 320  12 12" xmlns="http://www.w3.org/2000/svg">
  <path d="M 615 320  C 618.36 320  621 322.64  621 326  C 621 329.36  618.36 332  615 332  C 611.64 332  609 329.36  609 326  C 609 322.64  611.64 320  615 320  Z " fill-rule="nonzero" fill="#ffffff" stroke="none" />
  <path d="M 615 320.5  C 618.08 320.5  620.5 322.92  620.5 326  C 620.5 329.08  618.08 331.5  615 331.5  C 611.92 331.5  609.5 329.08  609.5 326  C 609.5 322.92  611.92 320.5  615 320.5  Z " stroke-width="1" stroke="#797979" fill="none" />
  <path d="M 615 329  C 613.32 329  612 327.68  612 326  C 612 324.32  613.32 323  615 323  C 616.68 323  618 324.32  618 326  C 618 327.68  616.68 329  615 329  " fill-rule="nonzero" fill="#797979" stroke="none" />
</svg>