<?xml version="1.0" encoding="utf-8"?>
<svg version="1.1" xmlns:xlink="http://www.w3.org/1999/xlink" width="12px" height="12px" viewBox="667 320  12 12" xmlns="http://www.w3.org/2000/svg">
  <path d="M 673 320  C 676.36 320  679 322.64  679 326  C 679 329.36  676.36 332  673 332  C 669.64 332  667 329.36  667 326  C 667 322.64  669.64 320  673 320  Z " fill-rule="nonzero" fill="#ffffff" stroke="none" />
  <path d="M 673 320.5  C 676.08 320.5  678.5 322.92  678.5 326  C 678.5 329.08  676.08 331.5  673 331.5  C 669.92 331.5  667.5 329.08  667.5 326  C 667.5 322.92  669.92 320.5  673 320.5  Z " stroke-width="1" stroke="#797979" fill="none" />
  <path d="M 673 329  C 671.32 329  670 327.68  670 326  C 670 324.32  671.32 323  673 323  C 674.68 323  676 324.32  676 326  C 676 327.68  674.68 329  673 329  " fill-rule="nonzero" fill="#797979" stroke="none" />
</svg>