<?xml version="1.0" encoding="utf-8"?>
<svg version="1.1" xmlns:xlink="http://www.w3.org/1999/xlink" width="144px" height="256px" xmlns="http://www.w3.org/2000/svg">
  <g transform="matrix(1 0 0 1 -386 -226 )">
    <path d="M 386 226  L 530 226  L 530 482  L 386 482  L 386 226  " fill-rule="nonzero" fill="#cccccc" stroke="none" />
    <path d="M 396 236  L 520 236  L 520 472  L 396 472  L 396 236  " fill-rule="nonzero" fill="#ffffff" stroke="none" />
    <path d="M 471.68 286  C 465.632 286  460.88 281.248  460.88 275.2  C 460.88 269.152  465.632 264.4  471.68 264.4  C 477.728 264.4  482.48 269.152  482.48 275.2  C 482.48 281.248  477.728 286  471.68 286  " fill-rule="nonzero" fill="#cccccc" stroke="none" />
    <path d="M 400 469  L 400 343.05  L 429.25 285.8  L 470.2 331.6  L 493.6 320.15  L 517 331.6  L 517 469  L 400 469  " fill-rule="nonzero" fill="#169bd5" stroke="none" />
  </g>
</svg>