<?xml version="1.0" encoding="utf-8"?>
<svg version="1.1" xmlns:xlink="http://www.w3.org/1999/xlink" width="12px" height="12px" viewBox="288 195  12 12" xmlns="http://www.w3.org/2000/svg">
  <path d="M 294 195  C 297.36 195  300 197.64  300 201  C 300 204.36  297.36 207  294 207  C 290.64 207  288 204.36  288 201  C 288 197.64  290.64 195  294 195  Z " fill-rule="nonzero" fill="#ffffff" stroke="none" />
  <path d="M 294 195.5  C 297.08 195.5  299.5 197.92  299.5 201  C 299.5 204.08  297.08 206.5  294 206.5  C 290.92 206.5  288.5 204.08  288.5 201  C 288.5 197.92  290.92 195.5  294 195.5  Z " stroke-width="1" stroke="#797979" fill="none" />
  <path d="M 294 204  C 292.32 204  291 202.68  291 201  C 291 199.32  292.32 198  294 198  C 295.68 198  297 199.32  297 201  C 297 202.68  295.68 204  294 204  " fill-rule="nonzero" fill="#797979" stroke="none" />
</svg>