<?xml version="1.0" encoding="utf-8"?>
<svg version="1.1" xmlns:xlink="http://www.w3.org/1999/xlink" width="371px" height="158px" xmlns="http://www.w3.org/2000/svg">
  <defs>
    <filter x="-4px" y="146px" width="371px" height="158px" filterUnits="userSpaceOnUse" id="filter15">
      <feOffset dx="0" dy="0" in="SourceAlpha" result="shadowOffsetInner" />
      <feGaussianBlur stdDeviation="2" in="shadowOffsetInner" result="shadowGaussian" />
      <feComposite in2="shadowGaussian" operator="atop" in="SourceAlpha" result="shadowComposite" />
      <feColorMatrix type="matrix" values="0 0 0 0 0  0 0 0 0 0  0 0 0 0 0  0 0 0 0.149019607843137 0  " in="shadowComposite" />
    </filter>
    <g id="widget16">
      <path d="M 0.5 152  A 1.5 1.5 0 0 1 2 150.5 L 361 150.5  A 1.5 1.5 0 0 1 362.5 152 L 362.5 298  A 1.5 1.5 0 0 1 361 299.5 L 2 299.5  A 1.5 1.5 0 0 1 0.5 298 L 0.5 152  Z " fill-rule="nonzero" fill="#1890ff" stroke="none" fill-opacity="0.203921568627451" />
      <path d="M 0.5 152  A 1.5 1.5 0 0 1 2 150.5 L 361 150.5  A 1.5 1.5 0 0 1 362.5 152 L 362.5 298  A 1.5 1.5 0 0 1 361 299.5 L 2 299.5  A 1.5 1.5 0 0 1 0.5 298 L 0.5 152  Z " stroke-width="1" stroke="#e9e9e9" fill="none" />
    </g>
  </defs>
  <g transform="matrix(1 0 0 1 4 -146 )">
    <use xlink:href="#widget16" filter="url(#filter15)" />
    <use xlink:href="#widget16" />
  </g>
</svg>