<?xml version="1.0" encoding="utf-8"?>
<svg version="1.1" xmlns:xlink="http://www.w3.org/1999/xlink" width="104px" height="28px" xmlns="http://www.w3.org/2000/svg">
  <g transform="matrix(1 0 0 1 -96 -413 )">
    <path d="M 97 418  A 4 4 0 0 1 101 414 L 195 414  A 4 4 0 0 1 199 418 L 199 436  A 4 4 0 0 1 195 440 L 101 440  A 4 4 0 0 1 97 436 L 97 418  Z " fill-rule="nonzero" fill="#1890ff" stroke="none" fill-opacity="0" />
    <path d="M 96.5 418  A 4.5 4.5 0 0 1 101 413.5 L 195 413.5  A 4.5 4.5 0 0 1 199.5 418 L 199.5 436  A 4.5 4.5 0 0 1 195 440.5 L 101 440.5  A 4.5 4.5 0 0 1 96.5 436 L 96.5 418  Z " stroke-width="1" stroke="#1890ff" fill="none" stroke-opacity="0.203921568627451" />
  </g>
</svg>